<?xml version="1.0" encoding="UTF-8"?>
<svg version="1.1" xmlns="http://www.w3.org/2000/svg" width="512" height="512">
<path d="M0 0 C1.24934676 -0.00538554 2.49869353 -0.01077108 3.78589928 -0.01631981 C7.23747548 -0.03073238 10.68881204 -0.02654294 14.14040112 -0.019153 C17.86920725 -0.01441317 21.59796213 -0.0269384 25.32675171 -0.03717041 C32.62561281 -0.05434808 39.92438778 -0.05520054 47.22326384 -0.04995751 C53.15739763 -0.04591249 59.091506 -0.04736331 65.02563858 -0.05270576 C66.29357267 -0.0538284 66.29357267 -0.0538284 67.58712158 -0.05497371 C69.304454 -0.05650522 71.02178642 -0.05804357 72.73911883 -0.05958868 C88.83652022 -0.0733101 104.93387298 -0.06787865 121.03127326 -0.05640347 C135.74833813 -0.04647246 150.46527725 -0.05941009 165.18232273 -0.08333766 C180.30446331 -0.10773805 195.42654535 -0.11733416 210.54870522 -0.11068493 C219.03436765 -0.10719467 227.51993339 -0.10941196 236.0055809 -0.12693596 C243.22956315 -0.14166974 250.45338063 -0.14227811 257.67735969 -0.12486505 C261.360692 -0.1163621 265.04373012 -0.1141879 268.72704697 -0.1295166 C272.725821 -0.14595164 276.72388755 -0.13119514 280.72265625 -0.11352539 C281.87870106 -0.1231304 283.03474586 -0.1327354 284.22582233 -0.14263147 C291.90898022 -0.07287014 299.50024699 0.79450868 305.43063343 6.13767534 C310.83517521 11.99266444 311.95487269 17.54201827 311.80081177 25.37986755 C311.17999725 31.35520732 308.88072696 34.96361906 304.73831177 39.20018005 C296.93087714 44.45518413 290.15278095 44.82288172 280.97662354 44.77536011 C279.72727677 44.78074565 278.47793001 44.78613118 277.19072425 44.79167992 C273.73914806 44.80609249 270.28781149 44.80190305 266.83622241 44.79451311 C263.10741629 44.78977328 259.3786614 44.8022985 255.64987183 44.81253052 C248.35101073 44.82970819 241.05223575 44.83056064 233.75335969 44.82531761 C227.8192259 44.82127259 221.88511753 44.82272342 215.95098495 44.82806587 C215.10569556 44.82881429 214.26040617 44.82956272 213.38950195 44.83033382 C211.67216953 44.83186533 209.95483711 44.83340368 208.23750471 44.83494879 C192.14010332 44.84867021 176.04275055 44.84323876 159.94535027 44.83176357 C145.22828541 44.82183257 130.51134628 44.83477019 115.79430081 44.85869776 C100.67216023 44.88309816 85.55007819 44.89269426 70.42791831 44.88604504 C61.94225589 44.88255478 53.45669015 44.88477207 44.97104263 44.90229607 C37.74706039 44.91702984 30.52324291 44.91763822 23.29926385 44.90022516 C19.61593154 44.89172221 15.93289341 44.889548 12.24957657 44.90487671 C8.25080253 44.92131174 4.25273599 44.90655525 0.25396729 44.8888855 C-0.90207752 44.8984905 -2.05812233 44.90809551 -3.24919879 44.91799158 C-10.93235669 44.84823024 -18.52362345 43.98085143 -24.45400989 38.63768476 C-29.85855167 32.78269567 -30.97824915 27.23334183 -30.82418823 19.39549255 C-30.20337371 13.42015279 -27.90410343 9.81174105 -23.76168823 5.57518005 C-15.9542536 0.32017597 -9.17615742 -0.04752161 0 0 Z " fill="#000000" transform="translate(115.51168823242188,233.61231994628906)"/>
<path d="M0 0 C1.08487428 -0.00644889 2.16974856 -0.01289778 3.28749782 -0.0195421 C5.06675703 -0.01489629 5.06675703 -0.01489629 6.88196087 -0.01015663 C8.1464897 -0.01468774 9.41101853 -0.01921886 10.71386641 -0.02388728 C14.22163891 -0.03612111 17.72931605 -0.03585637 21.23710501 -0.03349853 C25.0211332 -0.03309045 28.80513078 -0.04412859 32.58914471 -0.05361366 C40.00202855 -0.0702268 47.41488058 -0.07572335 54.82778148 -0.07683842 C60.85353313 -0.07778876 66.87927429 -0.08189834 72.90502262 -0.08823967 C89.98959571 -0.10585304 107.07414366 -0.11507841 124.15872589 -0.11357872 C125.07976572 -0.11349881 126.00080555 -0.1134189 126.94975567 -0.11333656 C128.33300255 -0.11321392 128.33300255 -0.11321392 129.74419381 -0.1130888 C144.6891239 -0.1122759 159.63395319 -0.13141427 174.57885412 -0.1596133 C189.92462664 -0.1883402 205.27034999 -0.20215369 220.61615008 -0.20042574 C229.23146742 -0.19976177 237.84667911 -0.20525732 246.46197224 -0.22678185 C253.79733264 -0.24499112 261.1325395 -0.24934311 268.46791271 -0.235763 C272.20971341 -0.22923197 275.95121952 -0.22912067 279.69299221 -0.2464695 C283.7517289 -0.26509419 287.80978324 -0.25264933 291.86853313 -0.23720741 C293.04801378 -0.24749454 294.22749442 -0.25778167 295.4427169 -0.26838052 C303.14766562 -0.20352546 308.58723457 0.82409499 314.58915997 6.00336266 C315.03517559 6.56152672 315.48119122 7.11969078 315.94072247 7.69476891 C316.63294903 8.52814781 316.63294903 8.52814781 317.33915997 9.37836266 C321.04118259 15.0492954 321.41291502 20.66505183 320.56572247 27.25726891 C318.30844509 34.38180062 315.00155556 38.56262398 308.56572247 42.25726891 C305.53501059 43.2675062 303.51037891 43.38450861 300.34071922 43.38869667 C299.25162685 43.39253782 298.16253448 43.39637896 297.04043931 43.4003365 C295.23872237 43.39903678 295.23872237 43.39903678 293.40060711 43.3977108 C292.12820889 43.40068192 290.85581068 43.40365304 289.54485494 43.4067142 C286.00592161 43.41479235 282.46700855 43.41657422 278.92806709 43.41731167 C275.11405795 43.4191608 271.30005937 43.42670741 267.48605633 43.43344688 C259.14312343 43.44703635 250.80019534 43.45305583 242.45725322 43.45745754 C237.24947969 43.46021883 232.04170801 43.46445597 226.83393574 43.46896172 C212.41961025 43.481155 198.00528626 43.49145432 183.59095573 43.49483681 C182.20678577 43.49516616 182.20678577 43.49516616 180.79465278 43.49550216 C179.4071427 43.49582958 179.4071427 43.49582958 177.99160212 43.49616361 C176.11713898 43.49660708 174.24267584 43.49705364 172.3682127 43.49750328 C170.97351054 43.49783543 170.97351054 43.49783543 169.55063257 43.49817428 C154.48138119 43.50212308 139.41217813 43.51957932 124.34294542 43.5428628 C108.87746983 43.56656597 93.4120185 43.57903818 77.94652444 43.58020473 C69.26083451 43.58112205 60.57520755 43.58688881 51.88953495 43.60502434 C44.49407223 43.62041135 37.09869195 43.62555407 29.70321628 43.61728624 C25.9293184 43.61337479 22.15558662 43.61433328 18.3817091 43.62834358 C14.29161516 43.6433891 10.20189683 43.63523072 6.11178875 43.62476158 C4.91733629 43.63281799 3.72288383 43.64087439 2.49223584 43.64917493 C-4.79454262 43.60539879 -9.32766569 42.84611211 -15.05927753 38.06976891 C-20.14181512 32.0509744 -22.15440113 26.89111932 -21.81318378 18.93305016 C-20.84378545 12.087299 -17.53277604 7.81936279 -12.31318378 3.48383141 C-8.3065096 0.86824784 -4.7514413 0.00715582 0 0 Z " fill="#000000" transform="translate(106.43427753448486,340.74273109436035)"/>
<path d="M0 0 C1.08909237 -0.00384115 2.17818474 -0.00768229 3.30027992 -0.01163983 C5.10199685 -0.01034011 5.10199685 -0.01034011 6.94011211 -0.00901413 C8.21251033 -0.01198525 9.48490855 -0.01495637 10.79586428 -0.01801753 C14.33479762 -0.02609568 17.87371067 -0.02787755 21.41265213 -0.028615 C25.22666127 -0.03046413 29.04065985 -0.03801074 32.8546629 -0.04475021 C41.19759579 -0.05833968 49.54052388 -0.06435916 57.88346601 -0.06876087 C63.09123954 -0.07152216 68.29901121 -0.0757593 73.50678349 -0.08026505 C87.92110897 -0.09245833 102.33543296 -0.10275765 116.74976349 -0.10614014 C118.13393345 -0.10646949 118.13393345 -0.10646949 119.54606644 -0.10680549 C120.47107316 -0.10702377 121.39607988 -0.10724204 122.3491171 -0.10746694 C124.22358024 -0.1079104 126.09804338 -0.10835697 127.97250652 -0.10880661 C128.90230796 -0.10902804 129.83210941 -0.10924947 130.79008665 -0.10947761 C145.85933804 -0.11342641 160.92854109 -0.13088265 175.9977738 -0.15416613 C191.4632494 -0.1778693 206.92870073 -0.19034151 222.39419478 -0.19150805 C231.07988471 -0.19242538 239.76551167 -0.19819214 248.45118427 -0.21632767 C255.84664699 -0.23171468 263.24202727 -0.2368574 270.63750295 -0.22858956 C274.41140082 -0.22467812 278.1851326 -0.22563661 281.95901012 -0.23964691 C286.04910406 -0.25469243 290.1388224 -0.24653405 294.22893047 -0.23606491 C295.42338293 -0.24412132 296.61783539 -0.25217772 297.84848338 -0.26047826 C305.13526185 -0.21670211 309.66838491 0.54258456 315.39999676 5.31892776 C320.48253434 11.33772227 322.49512036 16.49757735 322.15390301 24.45564651 C321.18450467 31.30139767 317.87349527 35.56933388 312.65390301 39.90486526 C308.64722882 42.52044883 305.09216052 43.38154085 300.34071922 43.38869667 C299.25584494 43.39514556 298.17097066 43.40159446 297.0532214 43.40823877 C295.27396219 43.40359296 295.27396219 43.40359296 293.45875835 43.3988533 C291.56196511 43.40564997 291.56196511 43.40564997 289.62685281 43.41258395 C286.11908032 43.42481778 282.61140317 43.42455304 279.10361421 43.4221952 C275.31958603 43.42178713 271.53558845 43.43282526 267.75157452 43.44231033 C260.33869068 43.45892347 252.92583864 43.46442002 245.51293775 43.46553509 C239.48718609 43.46648543 233.46144494 43.47059501 227.4356966 43.47693634 C210.35112352 43.49454971 193.26657556 43.50377508 176.18199333 43.50227539 C175.2609535 43.50219548 174.33991368 43.50211557 173.39096355 43.50203323 C172.46879897 43.50195147 171.54663438 43.50186971 170.59652541 43.50178547 C155.65159533 43.50097257 140.70676603 43.52011094 125.7618651 43.54830997 C110.41609259 43.57703687 95.07036923 43.59085036 79.72456914 43.58912241 C71.1092518 43.58845844 62.49404011 43.59395399 53.87874699 43.61547852 C46.54338658 43.63368779 39.20817973 43.63803979 31.87280651 43.62445967 C28.13100581 43.61792864 24.38949971 43.61781734 20.64772701 43.63516617 C16.58899033 43.65379086 12.53093598 43.641346 8.47218609 43.62590408 C6.70296513 43.64133477 6.70296513 43.64133477 4.89800233 43.65707719 C-2.8069464 43.59222213 -8.24651535 42.56460168 -14.24844074 37.38533401 C-14.69445637 36.82716995 -15.14047199 36.26900589 -15.60000324 35.69392776 C-16.06148762 35.13834183 -16.52297199 34.58275589 -16.99844074 34.01033401 C-20.70046337 28.33940127 -21.0721958 22.72364484 -20.22500324 16.13142776 C-17.96772587 9.00689605 -14.66083633 4.82607269 -8.22500324 1.13142776 C-5.19429137 0.12119047 -3.16965968 0.00418806 0 0 Z " fill="#000000" transform="translate(105.22500324249268,127.86857223510742)"/>
</svg>
